<svg width="28" height="28" viewBox="0 0 28 28" fill="none" xmlns="http://www.w3.org/2000/svg">
<path d="M13.9997 2.33301C20.4163 2.33301 25.6663 7.58301 25.6663 13.9997C25.6663 20.4163 20.4163 25.6663 13.9997 25.6663C7.58301 25.6663 2.33301 20.4163 2.33301 13.9997C2.33301 7.58301 7.58301 2.33301 13.9997 2.33301ZM13.9997 4.66634C11.783 4.66634 9.79967 5.36634 8.28301 6.64967L21.3497 19.7163C22.5163 18.083 23.333 16.0997 23.333 13.9997C23.333 8.86634 19.133 4.66634 13.9997 4.66634ZM19.7163 21.3497L6.64967 8.28301C5.36634 9.79967 4.66634 11.783 4.66634 13.9997C4.66634 19.133 8.86634 23.333 13.9997 23.333C16.2163 23.333 18.1997 22.633 19.7163 21.3497Z" fill="white"/>
</svg>
