<svg width="18" height="18" viewBox="0 0 18 18" fill="none" xmlns="http://www.w3.org/2000/svg">
<rect width="18" height="18" rx="9" fill="#B5BBC1"/>
<rect width="18" height="18" rx="9" fill="black" fill-opacity="0.2"/>
<path fill-rule="evenodd" clip-rule="evenodd" d="M5.19815 12.8156C5.08156 12.6974 5.01608 12.5372 5.01608 12.3702C5.01608 12.2031 5.08156 12.0429 5.19815 11.9247L8.0786 9.00814L5.19815 6.09158C5.13698 6.03386 5.08792 5.96427 5.0539 5.88694C5.01987 5.80962 5.00157 5.72614 5.0001 5.6415C4.99862 5.55686 5.014 5.47279 5.04531 5.39429C5.07662 5.3158 5.12323 5.2445 5.18235 5.18464C5.24147 5.12478 5.31189 5.07759 5.38941 5.04588C5.46693 5.01418 5.54996 4.9986 5.63356 5.0001C5.71715 5.00159 5.79959 5.02012 5.87596 5.05457C5.95233 5.08903 6.02106 5.1387 6.07806 5.20064L8.95851 8.1172L11.839 5.20064C11.8959 5.1387 11.9647 5.08903 12.0411 5.05457C12.1174 5.02012 12.1999 5.00159 12.2835 5.0001C12.367 4.9986 12.4501 5.01418 12.5276 5.04588C12.6051 5.07758 12.6755 5.12478 12.7347 5.18463C12.7938 5.2445 12.8404 5.3158 12.8717 5.39429C12.903 5.47279 12.9184 5.55686 12.9169 5.6415C12.9154 5.72614 12.8971 5.80962 12.8631 5.88694C12.8291 5.96427 12.78 6.03386 12.7189 6.09157L9.83841 9.00814L12.7189 11.9247C12.8288 12.0442 12.8887 12.2023 12.8859 12.3656C12.883 12.5289 12.8177 12.6847 12.7036 12.8002C12.5895 12.9157 12.4356 12.9819 12.2744 12.9847C12.1131 12.9876 11.957 12.927 11.839 12.8156L8.95851 9.89908L6.07806 12.8156C5.96133 12.9337 5.80309 13 5.6381 13C5.47312 13 5.31488 12.9337 5.19815 12.8156Z" fill="white"/>
</svg>
