<svg width="30" height="30" viewBox="0 0 30 30" fill="none" xmlns="http://www.w3.org/2000/svg">
<rect x="1.5" y="1.5" width="27" height="27" rx="13.5" fill="#E7EBEF"/>
<rect x="1.5" y="1.5" width="27" height="27" rx="13.5" stroke="white" stroke-width="3"/>
<path d="M9.5513 16.3296L9.00716 20.1243C8.95045 20.5775 9.22941 21 9.88084 21L13.6668 20.4546C13.8319 20.4326 13.9853 20.3571 14.1036 20.2395C14.1641 20.1788 20.1044 14.2302 20.158 14.1634C22.7959 11.2429 18.6444 7.25846 15.828 9.82333C15.7613 9.87711 9.82566 15.8318 9.76588 15.8918C9.6486 16.0103 9.57324 16.1641 9.5513 16.3296ZM17.8972 10.5684C18.0979 10.5658 18.2972 10.6032 18.4833 10.6785C18.6695 10.7538 18.8388 10.8655 18.9815 11.0071C19.1241 11.1486 19.2373 11.3172 19.3143 11.503C19.3912 11.6889 19.4306 11.8882 19.43 12.0894C19.4304 12.4172 19.3226 12.7359 19.1234 12.9958L16.9929 10.8603C17.2542 10.6663 17.572 10.5637 17.8972 10.5684ZM11.0304 16.7982L15.8893 11.9358L18.0505 14.102L13.1993 18.9721L10.6702 19.3331L11.0304 16.7982Z" fill="#3B3D40"/>
</svg>
