<svg width="21" height="21" viewBox="0 0 21 21" fill="none" xmlns="http://www.w3.org/2000/svg">
<path d="M9.23995 17.01C9.1633 17.01 9.08665 16.9888 9.01903 16.9472C8.89534 16.8707 8.81995 16.7355 8.81995 16.59V11.3039L4.56913 7.05303C4.33099 6.8151 4.19995 6.49842 4.19995 6.162V5.24997C4.19995 4.78671 4.57669 4.40997 5.03995 4.40997H15.96C16.4232 4.40997 16.8 4.78671 16.8 5.24997V6.162C16.8 6.49863 16.6689 6.8151 16.4308 7.05303L12.18 11.3039V15.33C12.18 15.4892 12.0901 15.6345 11.9479 15.7057L9.4279 16.9657C9.36847 16.9953 9.30421 17.01 9.23995 17.01ZM5.03995 5.24997V6.162C5.03995 6.27414 5.08363 6.37977 5.16301 6.45915L9.53689 10.833C9.61564 10.9118 9.65995 11.0187 9.65995 11.13V15.9104L11.34 15.0704V11.13C11.34 11.0187 11.3843 10.9118 11.463 10.833L15.8369 6.45915C15.9163 6.37977 15.96 6.27414 15.96 6.162V5.24997H5.03995Z" fill="#191D1F"/>
</svg>
