<svg width="28" height="28" viewBox="0 0 28 28" fill="none" xmlns="http://www.w3.org/2000/svg">
<path fill-rule="evenodd" clip-rule="evenodd" d="M21.8753 12.5417V9.33333H23.6253V12.5417H26.8337V14.2917H23.6253V17.5H21.8753V14.2917H18.667V12.5417H21.8753ZM9.13766 14.4083C8.27899 13.391 7.58366 11.4917 7.58366 10.1617V8.16667C7.58366 6.92899 8.07532 5.742 8.95049 4.86683C9.82566 3.99166 11.0126 3.5 12.2503 3.5C13.488 3.5 14.675 3.99166 15.5502 4.86683C16.4253 5.742 16.917 6.92899 16.917 8.16667V10.1617C16.917 11.4917 16.217 13.3968 15.363 14.4107L14.9418 14.91C14.2535 15.7255 14.4682 16.7627 15.4307 17.2317L22.034 20.454C22.7515 20.804 23.3337 21.7292 23.3337 22.5342V23.3357C23.333 23.6449 23.2097 23.9412 22.9907 24.1595C22.7717 24.3778 22.475 24.5003 22.1658 24.5H2.33366C2.02464 24.5 1.72825 24.3774 1.50952 24.1591C1.2908 23.9408 1.16761 23.6447 1.16699 23.3357V22.5342C1.16699 21.735 1.74799 20.804 2.46666 20.4528L9.06999 17.2305C10.0278 16.7638 10.2507 15.7278 9.55999 14.9088L9.13766 14.4083Z" fill="white"/>
</svg>
