<svg width="24" height="24" viewBox="0 0 24 24" fill="none" xmlns="http://www.w3.org/2000/svg">
<path fill-rule="evenodd" clip-rule="evenodd" d="M16.1984 3.17134C17.6948 3.28871 19.1 3.93737 20.16 5.00017C21.3276 6.1749 21.983 7.76389 21.983 9.42017C21.983 11.0764 21.3276 12.6654 20.16 13.8402L13.95 20.0602C13.43 20.5719 12.7296 20.8588 12 20.8588C11.2704 20.8588 10.57 20.5719 10.05 20.0602L3.84003 13.8402C2.71485 12.7228 2.05481 11.2207 1.99283 9.63618C1.93085 8.05169 2.47154 6.50256 3.506 5.30075C4.54047 4.09894 5.99188 3.33373 7.56795 3.1592C9.14402 2.98468 10.7277 3.4138 12 4.36017C13.2128 3.47563 14.7019 3.05397 16.1984 3.17134Z" fill="#FA502E"/>
</svg>
