<svg width="24" height="24" viewBox="0 0 24 24" fill="none" xmlns="http://www.w3.org/2000/svg">
<path d="M4 18.96V9.92057C4 9.65434 4.06143 9.40232 4.18429 9.16451C4.30714 8.9267 4.47643 8.73084 4.69214 8.57693L10.4618 4.33591C10.7639 4.11197 11.1089 4 11.4968 4C11.8846 4 12.2318 4.11197 12.5382 4.33591L18.3079 8.57589C18.5243 8.7298 18.6936 8.92601 18.8157 9.16451C18.9386 9.40232 19 9.65434 19 9.92057V18.96C19 19.2387 18.8932 19.4817 18.6796 19.689C18.4661 19.8963 18.2157 20 17.9286 20H14.3029C14.0571 20 13.8514 19.9196 13.6857 19.7587C13.52 19.5972 13.4371 19.3975 13.4371 19.1597V14.2001C13.4371 13.9623 13.3543 13.7629 13.1886 13.6021C13.0221 13.4405 12.8164 13.3598 12.5714 13.3598H10.4286C10.1836 13.3598 9.97821 13.4405 9.8125 13.6021C9.64607 13.7629 9.56286 13.9623 9.56286 14.2001V19.1607C9.56286 19.3985 9.48 19.5979 9.31429 19.7587C9.14857 19.9196 8.94321 20 8.69821 20H5.07143C4.78429 20 4.53393 19.8963 4.32036 19.689C4.10679 19.4817 4 19.2387 4 18.96Z" fill="#191D1F"/>
</svg>
