<svg width="16" height="16" viewBox="0 0 16 16" fill="none" xmlns="http://www.w3.org/2000/svg">
<path d="M8.0046 1.5C8.13722 1.5 8.26441 1.55267 8.35818 1.64645C8.45196 1.74023 8.50464 1.86742 8.50464 2.00004C8.50464 2.13266 8.45196 2.25985 8.35818 2.35362C8.26441 2.4474 8.13722 2.50007 8.0046 2.50008C7.93894 2.50008 7.87391 2.48715 7.81325 2.46202C7.75258 2.4369 7.69745 2.40006 7.65102 2.35362C7.60459 2.30719 7.56776 2.25206 7.54263 2.19139C7.5175 2.13072 7.50456 2.0657 7.50456 2.00004C7.50456 1.93437 7.5175 1.86935 7.54263 1.80868C7.56776 1.74802 7.60459 1.69288 7.65102 1.64645C7.69745 1.60002 7.75258 1.56318 7.81325 1.53805C7.87391 1.51292 7.93894 1.5 8.0046 1.5ZM8.0046 13.5091C8.13722 13.5091 8.26441 13.5618 8.35818 13.6555C8.45196 13.7493 8.50464 13.8765 8.50464 14.0091C8.50464 14.1417 8.45196 14.2689 8.35818 14.3627C8.26441 14.4565 8.13722 14.5092 8.0046 14.5092C7.93894 14.5092 7.87391 14.4962 7.81325 14.4711C7.75258 14.446 7.69745 14.4091 7.65102 14.3627C7.60459 14.3163 7.56776 14.2611 7.54263 14.2005C7.5175 14.1398 7.50456 14.0748 7.50456 14.0091C7.50456 13.9435 7.5175 13.8784 7.54263 13.8178C7.56776 13.7571 7.60459 13.702 7.65102 13.6555C7.69745 13.6091 7.75258 13.5723 7.81325 13.5472C7.87391 13.522 7.93894 13.5091 8.0046 13.5091ZM8.0046 7.5059C8.13722 7.5059 8.26441 7.55857 8.35818 7.65235C8.45196 7.74612 8.50464 7.87332 8.50464 8.00593C8.50464 8.13855 8.45196 8.26574 8.35818 8.35952C8.26441 8.4533 8.13722 8.50597 8.0046 8.50597C7.93894 8.50597 7.87391 8.49305 7.81325 8.46792C7.75258 8.44279 7.69745 8.40595 7.65102 8.35952C7.60459 8.31309 7.56776 8.25795 7.54263 8.19729C7.5175 8.13662 7.50456 8.0716 7.50456 8.00593C7.50456 7.94027 7.5175 7.87525 7.54263 7.81458C7.56776 7.75391 7.60459 7.69878 7.65102 7.65235C7.69745 7.60591 7.75258 7.56908 7.81325 7.54395C7.87391 7.51882 7.93894 7.5059 8.0046 7.5059Z" stroke="black" stroke-width="0.999605" stroke-linecap="round" stroke-linejoin="round"/>
</svg>
