<svg width="24" height="24" viewBox="0 0 24 24" fill="none" xmlns="http://www.w3.org/2000/svg">
<g filter="url(#filter0_d_681_2686)">
<path d="M12 8C10.9 8 9.95833 7.60833 9.175 6.825C8.39167 6.04167 8 5.1 8 4C8 2.9 8.39167 1.95833 9.175 1.175C9.95833 0.391667 10.9 0 12 0C13.1 0 14.0417 0.391667 14.825 1.175C15.6083 1.95833 16 2.9 16 4C16 5.1 15.6083 6.04167 14.825 6.825C14.0417 7.60833 13.1 8 12 8ZM4 14V13.2C4 12.6333 4.146 12.1127 4.438 11.638C4.73 11.1633 5.11733 10.8007 5.6 10.55C6.63333 10.0333 7.68333 9.646 8.75 9.388C9.81667 9.13 10.9 9.00067 12 9C13.1 8.99933 14.1833 9.12867 15.25 9.388C16.3167 9.64733 17.3667 10.0347 18.4 10.55C18.8833 10.8 19.271 11.1627 19.563 11.638C19.855 12.1133 20.0007 12.634 20 13.2V14C20 14.55 19.8043 15.021 19.413 15.413C19.0217 15.805 18.5507 16.0007 18 16H6C5.45 16 4.97933 15.8043 4.588 15.413C4.19667 15.0217 4.00067 14.5507 4 14Z" fill="#191D1F"/>
</g>
<defs>
<filter id="filter0_d_681_2686" x="0" y="0" width="24" height="24" filterUnits="userSpaceOnUse" color-interpolation-filters="sRGB">
<feFlood flood-opacity="0" result="BackgroundImageFix"/>
<feColorMatrix in="SourceAlpha" type="matrix" values="0 0 0 0 0 0 0 0 0 0 0 0 0 0 0 0 0 0 127 0" result="hardAlpha"/>
<feOffset dy="4"/>
<feGaussianBlur stdDeviation="2"/>
<feComposite in2="hardAlpha" operator="out"/>
<feColorMatrix type="matrix" values="0 0 0 0 0 0 0 0 0 0 0 0 0 0 0 0 0 0 0.25 0"/>
<feBlend mode="normal" in2="BackgroundImageFix" result="effect1_dropShadow_681_2686"/>
<feBlend mode="normal" in="SourceGraphic" in2="effect1_dropShadow_681_2686" result="shape"/>
</filter>
</defs>
</svg>
