<svg width="22" height="22" viewBox="0 0 22 22" fill="none" xmlns="http://www.w3.org/2000/svg">
<rect width="22" height="22" rx="11" fill="#3B3D40" fill-opacity="0.7"/>
<path d="M9.5 7.5H8.5C8.22386 7.5 8 7.72386 8 8V14C8 14.2761 8.22386 14.5 8.5 14.5H9.5C9.77614 14.5 10 14.2761 10 14V8C10 7.72386 9.77614 7.5 9.5 7.5Z" fill="white"/>
<path d="M13.5 7.5H12.5C12.2239 7.5 12 7.72386 12 8V14C12 14.2761 12.2239 14.5 12.5 14.5H13.5C13.7761 14.5 14 14.2761 14 14V8C14 7.72386 13.7761 7.5 13.5 7.5Z" fill="white"/>
</svg>
