<svg width="10" height="10" viewBox="0 0 10 10" fill="none" xmlns="http://www.w3.org/2000/svg">
<path d="M7.91663 4.58332H5.41663V2.08332C5.41663 1.97282 5.37273 1.86684 5.29459 1.7887C5.21645 1.71056 5.11047 1.66666 4.99996 1.66666C4.88945 1.66666 4.78347 1.71056 4.70533 1.7887C4.62719 1.86684 4.58329 1.97282 4.58329 2.08332V4.58332H2.08329C1.97279 4.58332 1.86681 4.62722 1.78866 4.70536C1.71052 4.7835 1.66663 4.88948 1.66663 4.99999C1.66663 5.1105 1.71052 5.21648 1.78866 5.29462C1.86681 5.37276 1.97279 5.41666 2.08329 5.41666H4.58329V7.91666C4.58329 8.02716 4.62719 8.13314 4.70533 8.21128C4.78347 8.28942 4.88945 8.33332 4.99996 8.33332C5.11047 8.33332 5.21645 8.28942 5.29459 8.21128C5.37273 8.13314 5.41663 8.02716 5.41663 7.91666V5.41666H7.91663C8.02713 5.41666 8.13311 5.37276 8.21125 5.29462C8.28939 5.21648 8.33329 5.1105 8.33329 4.99999C8.33329 4.88948 8.28939 4.7835 8.21125 4.70536C8.13311 4.62722 8.02713 4.58332 7.91663 4.58332Z" fill="white"/>
</svg>
