<svg width="15" height="12" viewBox="0 0 15 12" fill="none" xmlns="http://www.w3.org/2000/svg">
<path d="M13.54 0.98246C14.3983 1.89413 14.8591 2.91663 14.8591 4.57413C14.8591 7.49079 12.8116 10.105 9.83413 11.3975L9.08996 10.2491C11.8691 8.74579 12.4125 6.79496 12.6291 5.56496C12.1816 5.79663 11.5958 5.87746 11.0216 5.82413C9.5183 5.68496 8.3333 4.45079 8.3333 2.91663C8.3333 2.14308 8.64059 1.40121 9.18757 0.854231C9.73455 0.30725 10.4764 -4.00543e-05 11.25 -4.00543e-05C11.6778 0.00365162 12.1005 0.0924225 12.4937 0.2611C12.8868 0.429777 13.2425 0.674991 13.54 0.98246ZM5.20663 0.98246C6.06497 1.89413 6.5258 2.91663 6.5258 4.57413C6.5258 7.49079 4.4783 10.105 1.5008 11.3975L0.756632 10.2491C3.5358 8.74579 4.07913 6.79496 4.2958 5.56496C3.8483 5.79663 3.26247 5.87746 2.6883 5.82413C1.18497 5.68496 -3.43323e-05 4.45079 -3.43323e-05 2.91663C-3.43323e-05 2.14308 0.307257 1.40121 0.854238 0.854231C1.40122 0.30725 2.14308 -4.00543e-05 2.91663 -4.00543e-05C3.34443 0.00365162 3.76721 0.0924225 4.16036 0.2611C4.55351 0.429777 4.90917 0.674991 5.20663 0.98246Z" fill="#DEE2E6"/>
</svg>
