<svg width="15" height="12" viewBox="0 0 15 12" fill="none" xmlns="http://www.w3.org/2000/svg">
<path d="M1.31917 10.415C0.460833 9.50333 0 8.48083 0 6.82333C0 3.90667 2.0475 1.2925 5.025 0L5.76917 1.14833C2.99 2.65167 2.44667 4.6025 2.23 5.8325C2.6775 5.60083 3.26333 5.52 3.8375 5.57333C5.34083 5.7125 6.52583 6.94667 6.52583 8.48083C6.52583 9.25438 6.21854 9.99625 5.67156 10.5432C5.12458 11.0902 4.38271 11.3975 3.60917 11.3975C3.18137 11.3938 2.75859 11.305 2.36544 11.1364C1.97229 10.9677 1.61663 10.7225 1.31917 10.415ZM9.6525 10.415C8.79417 9.50333 8.33333 8.48083 8.33333 6.82333C8.33333 3.90667 10.3808 1.2925 13.3583 0L14.1025 1.14833C11.3233 2.65167 10.78 4.6025 10.5633 5.8325C11.0108 5.60083 11.5967 5.52 12.1708 5.57333C13.6742 5.7125 14.8592 6.94667 14.8592 8.48083C14.8592 9.25438 14.5519 9.99625 14.0049 10.5432C13.4579 11.0902 12.716 11.3975 11.9425 11.3975C11.5147 11.3938 11.0919 11.305 10.6988 11.1364C10.3056 10.9677 9.94996 10.7225 9.6525 10.415Z" fill="#FDC9BE"/>
</svg>
