<svg width="16" height="16" viewBox="0 0 16 16" fill="none" xmlns="http://www.w3.org/2000/svg">
<path d="M8.00008 13.8334C6.71874 13.8316 5.49039 13.3218 4.58435 12.4158C3.6783 11.5097 3.16851 10.2814 3.16675 9.00002C3.16675 8.86741 3.21943 8.74024 3.31319 8.64647C3.40696 8.5527 3.53414 8.50002 3.66675 8.50002C3.79936 8.50002 3.92653 8.5527 4.0203 8.64647C4.11407 8.74024 4.16675 8.86741 4.16675 9.00002C4.16675 9.75818 4.39157 10.4993 4.81278 11.1297C5.23399 11.7601 5.83268 12.2514 6.53313 12.5416C7.23358 12.8317 8.00433 12.9076 8.74793 12.7597C9.49152 12.6118 10.1746 12.2467 10.7107 11.7106C11.2468 11.1745 11.6118 10.4915 11.7598 9.74787C11.9077 9.00427 11.8318 8.23352 11.5416 7.53307C11.2515 6.83262 10.7602 6.23393 10.1298 5.81272C9.49938 5.39151 8.75824 5.16669 8.00008 5.16669H6.33341C6.20081 5.16669 6.07363 5.11401 5.97986 5.02024C5.88609 4.92647 5.83341 4.7993 5.83341 4.66669C5.83341 4.53408 5.88609 4.4069 5.97986 4.31313C6.07363 4.21937 6.20081 4.16669 6.33341 4.16669H8.00008C9.28196 4.16669 10.5113 4.67591 11.4178 5.58234C12.3242 6.48876 12.8334 7.71814 12.8334 9.00002C12.8334 10.2819 12.3242 11.5113 11.4178 12.4177C10.5113 13.3241 9.28196 13.8334 8.00008 13.8334Z" fill="#B5BBC1"/>
<path d="M8.00008 13.8334C6.71874 13.8316 5.49039 13.3218 4.58435 12.4158C3.6783 11.5097 3.16851 10.2814 3.16675 9.00002C3.16675 8.86741 3.21943 8.74024 3.31319 8.64647C3.40696 8.5527 3.53414 8.50002 3.66675 8.50002C3.79936 8.50002 3.92653 8.5527 4.0203 8.64647C4.11407 8.74024 4.16675 8.86741 4.16675 9.00002C4.16675 9.75818 4.39157 10.4993 4.81278 11.1297C5.23399 11.7601 5.83268 12.2514 6.53313 12.5416C7.23358 12.8317 8.00433 12.9076 8.74793 12.7597C9.49152 12.6118 10.1746 12.2467 10.7107 11.7106C11.2468 11.1745 11.6118 10.4915 11.7598 9.74787C11.9077 9.00427 11.8318 8.23352 11.5416 7.53307C11.2515 6.83262 10.7602 6.23393 10.1298 5.81272C9.49938 5.39151 8.75824 5.16669 8.00008 5.16669H6.33341C6.20081 5.16669 6.07363 5.11401 5.97986 5.02024C5.88609 4.92647 5.83341 4.7993 5.83341 4.66669C5.83341 4.53408 5.88609 4.4069 5.97986 4.31313C6.07363 4.21937 6.20081 4.16669 6.33341 4.16669H8.00008C9.28196 4.16669 10.5113 4.67591 11.4178 5.58234C12.3242 6.48876 12.8334 7.71814 12.8334 9.00002C12.8334 10.2819 12.3242 11.5113 11.4178 12.4177C10.5113 13.3241 9.28196 13.8334 8.00008 13.8334Z" fill="black" fill-opacity="0.2"/>
<path d="M8.00005 7.16665C7.93435 7.16696 7.86926 7.15414 7.80859 7.12896C7.74791 7.10377 7.69288 7.06672 7.64671 7.01998L5.64672 5.01998C5.55308 4.92623 5.50049 4.79915 5.50049 4.66665C5.50049 4.53415 5.55308 4.40706 5.64672 4.31331L7.64671 2.31331C7.69249 2.26419 7.74769 2.22479 7.80902 2.19746C7.87036 2.17013 7.93656 2.15544 8.0037 2.15425C8.07084 2.15307 8.13752 2.16542 8.19978 2.19057C8.26204 2.21571 8.31859 2.25314 8.36607 2.30062C8.41355 2.3481 8.45098 2.40466 8.47613 2.46692C8.50128 2.52917 8.51363 2.59586 8.51244 2.663C8.51126 2.73013 8.49656 2.79634 8.46924 2.85767C8.44191 2.91901 8.40251 2.97421 8.35338 3.01998L6.70672 4.66665L8.35338 6.31331C8.44701 6.40706 8.49961 6.53415 8.49961 6.66665C8.49961 6.79915 8.44701 6.92623 8.35338 7.01998C8.30722 7.06672 8.25218 7.10377 8.19151 7.12896C8.13084 7.15414 8.06574 7.16696 8.00005 7.16665Z" fill="#B5BBC1"/>
<path d="M8.00005 7.16665C7.93435 7.16696 7.86926 7.15414 7.80859 7.12896C7.74791 7.10377 7.69288 7.06672 7.64671 7.01998L5.64672 5.01998C5.55308 4.92623 5.50049 4.79915 5.50049 4.66665C5.50049 4.53415 5.55308 4.40706 5.64672 4.31331L7.64671 2.31331C7.69249 2.26419 7.74769 2.22479 7.80902 2.19746C7.87036 2.17013 7.93656 2.15544 8.0037 2.15425C8.07084 2.15307 8.13752 2.16542 8.19978 2.19057C8.26204 2.21571 8.31859 2.25314 8.36607 2.30062C8.41355 2.3481 8.45098 2.40466 8.47613 2.46692C8.50128 2.52917 8.51363 2.59586 8.51244 2.663C8.51126 2.73013 8.49656 2.79634 8.46924 2.85767C8.44191 2.91901 8.40251 2.97421 8.35338 3.01998L6.70672 4.66665L8.35338 6.31331C8.44701 6.40706 8.49961 6.53415 8.49961 6.66665C8.49961 6.79915 8.44701 6.92623 8.35338 7.01998C8.30722 7.06672 8.25218 7.10377 8.19151 7.12896C8.13084 7.15414 8.06574 7.16696 8.00005 7.16665Z" fill="black" fill-opacity="0.2"/>
</svg>
