<svg width="8" height="8" viewBox="0 0 8 8" fill="none" xmlns="http://www.w3.org/2000/svg">
<path d="M3.625 7.25C2.664 7.24868 1.74273 6.86633 1.0632 6.1868C0.383666 5.50727 0.00132279 4.586 0 3.625C2.96402e-09 3.52554 0.0395088 3.43016 0.109835 3.35984C0.180161 3.28951 0.275544 3.25 0.375 3.25C0.474456 3.25 0.569839 3.28951 0.640165 3.35984C0.710491 3.43016 0.75 3.52554 0.75 3.625C0.75 4.19362 0.918616 4.74947 1.23452 5.22226C1.55043 5.69506 1.99945 6.06355 2.52479 6.28115C3.05012 6.49876 3.62819 6.55569 4.18588 6.44476C4.74358 6.33383 5.25586 6.06001 5.65793 5.65793C6.06001 5.25586 6.33383 4.74358 6.44476 4.18588C6.55569 3.62819 6.49876 3.05012 6.28115 2.52479C6.06355 1.99945 5.69506 1.55043 5.22226 1.23452C4.74947 0.918616 4.19362 0.75 3.625 0.75H2.375C2.27554 0.75 2.18016 0.710491 2.10984 0.640165C2.03951 0.569839 2 0.474456 2 0.375C2 0.275544 2.03951 0.180161 2.10984 0.109835C2.18016 0.0395088 2.27554 0 2.375 0H3.625C4.58641 0 5.50844 0.381919 6.18826 1.06174C6.86808 1.74156 7.25 2.66359 7.25 3.625C7.25 4.58641 6.86808 5.50844 6.18826 6.18826C5.50844 6.86808 4.58641 7.25 3.625 7.25Z" fill="#B5BBC1"/>
<path d="M3.625 7.25C2.664 7.24868 1.74273 6.86633 1.0632 6.1868C0.383666 5.50727 0.00132279 4.586 0 3.625C2.96402e-09 3.52554 0.0395088 3.43016 0.109835 3.35984C0.180161 3.28951 0.275544 3.25 0.375 3.25C0.474456 3.25 0.569839 3.28951 0.640165 3.35984C0.710491 3.43016 0.75 3.52554 0.75 3.625C0.75 4.19362 0.918616 4.74947 1.23452 5.22226C1.55043 5.69506 1.99945 6.06355 2.52479 6.28115C3.05012 6.49876 3.62819 6.55569 4.18588 6.44476C4.74358 6.33383 5.25586 6.06001 5.65793 5.65793C6.06001 5.25586 6.33383 4.74358 6.44476 4.18588C6.55569 3.62819 6.49876 3.05012 6.28115 2.52479C6.06355 1.99945 5.69506 1.55043 5.22226 1.23452C4.74947 0.918616 4.19362 0.75 3.625 0.75H2.375C2.27554 0.75 2.18016 0.710491 2.10984 0.640165C2.03951 0.569839 2 0.474456 2 0.375C2 0.275544 2.03951 0.180161 2.10984 0.109835C2.18016 0.0395088 2.27554 0 2.375 0H3.625C4.58641 0 5.50844 0.381919 6.18826 1.06174C6.86808 1.74156 7.25 2.66359 7.25 3.625C7.25 4.58641 6.86808 5.50844 6.18826 6.18826C5.50844 6.86808 4.58641 7.25 3.625 7.25Z" fill="black" fill-opacity="0.2"/>
</svg>
