<svg width="22" height="22" viewBox="0 0 22 22" fill="none" xmlns="http://www.w3.org/2000/svg">
<path d="M6.41634 3.66671C6.41634 3.18048 6.6095 2.71416 6.95331 2.37034C7.29713 2.02653 7.76344 1.83337 8.24967 1.83337H13.7497C14.2359 1.83337 14.7022 2.02653 15.046 2.37034C15.3899 2.71416 15.583 3.18048 15.583 3.66671V5.50004H19.2497C19.4928 5.50004 19.7259 5.59662 19.8979 5.76853C20.0698 5.94043 20.1663 6.17359 20.1663 6.41671C20.1663 6.65982 20.0698 6.89298 19.8979 7.06489C19.7259 7.2368 19.4928 7.33337 19.2497 7.33337H18.2698L17.475 18.4635C17.4421 18.9261 17.2351 19.359 16.8958 19.675C16.5564 19.991 16.11 20.1667 15.6463 20.1667H6.35217C5.88847 20.1667 5.44199 19.991 5.10265 19.675C4.76332 19.359 4.55635 18.9261 4.52342 18.4635L3.73051 7.33337H2.74967C2.50656 7.33337 2.2734 7.2368 2.10149 7.06489C1.92958 6.89298 1.83301 6.65982 1.83301 6.41671C1.83301 6.17359 1.92958 5.94043 2.10149 5.76853C2.2734 5.59662 2.50656 5.50004 2.74967 5.50004H6.41634V3.66671ZM8.24967 5.50004H13.7497V3.66671H8.24967V5.50004ZM5.56751 7.33337L6.35309 18.3334H15.6472L16.4328 7.33337H5.56751ZM9.16634 9.16671C9.40946 9.16671 9.64261 9.26328 9.81452 9.43519C9.98643 9.6071 10.083 9.84026 10.083 10.0834V15.5834C10.083 15.8265 9.98643 16.0596 9.81452 16.2316C9.64261 16.4035 9.40946 16.5 9.16634 16.5C8.92323 16.5 8.69007 16.4035 8.51816 16.2316C8.34625 16.0596 8.24967 15.8265 8.24967 15.5834V10.0834C8.24967 9.84026 8.34625 9.6071 8.51816 9.43519C8.69007 9.26328 8.92323 9.16671 9.16634 9.16671ZM12.833 9.16671C13.0761 9.16671 13.3093 9.26328 13.4812 9.43519C13.6531 9.6071 13.7497 9.84026 13.7497 10.0834V15.5834C13.7497 15.8265 13.6531 16.0596 13.4812 16.2316C13.3093 16.4035 13.0761 16.5 12.833 16.5C12.5899 16.5 12.3567 16.4035 12.1848 16.2316C12.0129 16.0596 11.9163 15.8265 11.9163 15.5834V10.0834C11.9163 9.84026 12.0129 9.6071 12.1848 9.43519C12.3567 9.26328 12.5899 9.16671 12.833 9.16671Z" fill="#B5BBC1"/>
<path d="M6.41634 3.66671C6.41634 3.18048 6.6095 2.71416 6.95331 2.37034C7.29713 2.02653 7.76344 1.83337 8.24967 1.83337H13.7497C14.2359 1.83337 14.7022 2.02653 15.046 2.37034C15.3899 2.71416 15.583 3.18048 15.583 3.66671V5.50004H19.2497C19.4928 5.50004 19.7259 5.59662 19.8979 5.76853C20.0698 5.94043 20.1663 6.17359 20.1663 6.41671C20.1663 6.65982 20.0698 6.89298 19.8979 7.06489C19.7259 7.2368 19.4928 7.33337 19.2497 7.33337H18.2698L17.475 18.4635C17.4421 18.9261 17.2351 19.359 16.8958 19.675C16.5564 19.991 16.11 20.1667 15.6463 20.1667H6.35217C5.88847 20.1667 5.44199 19.991 5.10265 19.675C4.76332 19.359 4.55635 18.9261 4.52342 18.4635L3.73051 7.33337H2.74967C2.50656 7.33337 2.2734 7.2368 2.10149 7.06489C1.92958 6.89298 1.83301 6.65982 1.83301 6.41671C1.83301 6.17359 1.92958 5.94043 2.10149 5.76853C2.2734 5.59662 2.50656 5.50004 2.74967 5.50004H6.41634V3.66671ZM8.24967 5.50004H13.7497V3.66671H8.24967V5.50004ZM5.56751 7.33337L6.35309 18.3334H15.6472L16.4328 7.33337H5.56751ZM9.16634 9.16671C9.40946 9.16671 9.64261 9.26328 9.81452 9.43519C9.98643 9.6071 10.083 9.84026 10.083 10.0834V15.5834C10.083 15.8265 9.98643 16.0596 9.81452 16.2316C9.64261 16.4035 9.40946 16.5 9.16634 16.5C8.92323 16.5 8.69007 16.4035 8.51816 16.2316C8.34625 16.0596 8.24967 15.8265 8.24967 15.5834V10.0834C8.24967 9.84026 8.34625 9.6071 8.51816 9.43519C8.69007 9.26328 8.92323 9.16671 9.16634 9.16671ZM12.833 9.16671C13.0761 9.16671 13.3093 9.26328 13.4812 9.43519C13.6531 9.6071 13.7497 9.84026 13.7497 10.0834V15.5834C13.7497 15.8265 13.6531 16.0596 13.4812 16.2316C13.3093 16.4035 13.0761 16.5 12.833 16.5C12.5899 16.5 12.3567 16.4035 12.1848 16.2316C12.0129 16.0596 11.9163 15.8265 11.9163 15.5834V10.0834C11.9163 9.84026 12.0129 9.6071 12.1848 9.43519C12.3567 9.26328 12.5899 9.16671 12.833 9.16671Z" fill="black" fill-opacity="0.2"/>
</svg>
