<svg width="8" height="8" viewBox="0 0 8 8" fill="none" xmlns="http://www.w3.org/2000/svg">
<path d="M7.39937 1.38092C7.33204 1.26401 7.23482 1.16712 7.11768 1.10018C7.00055 1.03324 6.86772 0.998656 6.73281 0.999979H1.26719C1.13228 0.998656 0.999451 1.03324 0.882318 1.10018C0.765185 1.16712 0.667964 1.26401 0.600625 1.38092C0.534918 1.49338 0.50029 1.62129 0.50029 1.75154C0.50029 1.88179 0.534918 2.0097 0.600625 2.12217L3.33281 6.8681C3.4011 6.98438 3.49859 7.08079 3.61562 7.14777C3.73265 7.21476 3.86516 7.25 4 7.25C4.13484 7.25 4.26735 7.21476 4.38438 7.14777C4.50141 7.08079 4.5989 6.98438 4.66719 6.8681L7.4 2.12217C7.46561 2.00965 7.50013 1.88171 7.50002 1.75146C7.49991 1.62121 7.46518 1.49332 7.39937 1.38092Z" fill="#007AFF"/>
</svg>
