<svg width="8" height="8" viewBox="0 0 8 8" fill="none" xmlns="http://www.w3.org/2000/svg">
<path d="M7.39937 6.61908C7.33204 6.73599 7.23482 6.83288 7.11768 6.89982C7.00055 6.96676 6.86772 7.00134 6.73281 7.00002H1.26719C1.13228 7.00134 0.999451 6.96676 0.882318 6.89982C0.765185 6.83288 0.667964 6.73599 0.600625 6.61908C0.534918 6.50662 0.50029 6.37871 0.50029 6.24846C0.50029 6.11821 0.534918 5.9903 0.600625 5.87783L3.33281 1.1319C3.4011 1.01562 3.49859 0.919214 3.61562 0.852227C3.73265 0.78524 3.86516 0.75 4 0.75C4.13484 0.75 4.26735 0.78524 4.38438 0.852227C4.50141 0.919214 4.5989 1.01562 4.66719 1.1319L7.4 5.87783C7.46561 5.99035 7.50013 6.11829 7.50002 6.24854C7.49991 6.37879 7.46518 6.50668 7.39937 6.61908Z" fill="#FA502E"/>
</svg>
